<svg xmlns="http://www.w3.org/2000/svg" viewBox="0 0 512 512">
  <rect width="512" height="512" rx="115" fill="#0f1923"/>
  <rect width="512" height="512" rx="115" fill="url(#grad)"/>
  <defs>
    <radialGradient id="grad" cx="50%" cy="30%" r="70%">
      <stop offset="0%" stop-color="#1a3050"/>
      <stop offset="100%" stop-color="#0a1220"/>
    </radialGradient>
  </defs>
  <!-- dome -->
  <ellipse cx="256" cy="230" rx="110" ry="20" fill="#c9a84c" opacity="0.15"/>
  <path d="M156 230 Q156 130 256 110 Q356 130 356 230 Z" fill="#1d3a5a" stroke="#c9a84c" stroke-width="3"/>
  <path d="M176 230 Q176 148 256 130 Q336 148 336 230 Z" fill="#22446b"/>
  <!-- minaret left -->
  <rect x="148" y="200" width="28" height="100" rx="4" fill="#1d3a5a" stroke="#c9a84c" stroke-width="2"/>
  <path d="M148 200 Q162 178 176 200Z" fill="#c9a84c"/>
  <rect x="158" y="164" width="8" height="16" rx="2" fill="#c9a84c"/>
  <!-- minaret right -->
  <rect x="336" y="200" width="28" height="100" rx="4" fill="#1d3a5a" stroke="#c9a84c" stroke-width="2"/>
  <path d="M336 200 Q350 178 364 200Z" fill="#c9a84c"/>
  <rect x="346" y="164" width="8" height="16" rx="2" fill="#c9a84c"/>
  <!-- door -->
  <path d="M230 300 L230 240 Q256 218 282 240 L282 300 Z" fill="#0f1923" stroke="#c9a84c" stroke-width="2"/>
  <!-- windows -->
  <ellipse cx="216" cy="195" rx="12" ry="16" fill="none" stroke="#c9a84c" stroke-width="2"/>
  <ellipse cx="296" cy="195" rx="12" ry="16" fill="none" stroke="#c9a84c" stroke-width="2"/>
  <!-- base -->
  <rect x="130" y="298" width="252" height="14" rx="4" fill="#c9a84c" opacity="0.8"/>
  <!-- crescent -->
  <path d="M248 90 Q262 76 276 90 Q264 86 258 94 Q254 86 248 90Z" fill="#c9a84c"/>
  <!-- stars -->
  <circle cx="190" cy="360" r="3" fill="#c9a84c" opacity="0.6"/>
  <circle cx="322" cy="360" r="3" fill="#c9a84c" opacity="0.6"/>
  <circle cx="256" cy="375" r="2" fill="#c9a84c" opacity="0.4"/>
  <!-- bottom text -->
  <text x="256" y="420" text-anchor="middle" font-family="'Tajawal', Arial" font-size="48" font-weight="700" fill="#c9a84c">مصلّاي</text>
</svg>
